<svg id="Layer_1" data-name="Layer 1" xmlns="http://www.w3.org/2000/svg" viewBox="0 0 319.41 197.15">
  <defs>
    <style>
      .cls-1 {
        fill: #f07427;
      }
    </style>
  </defs>
  <g>
    <path class="cls-1" d="M16.38,164.12c-4.33-8.1-1.59-13.68,7.24-14.63,14.6-1.57,29.26-2.59,43.81-4.51a49.18,49.18,0,0,0,16.5-5.18c6.42-3.43,12.22-8.09,18-12.6,1.35-1.06,2.48-4,2-5.43-.66-1.83-2.87-3.6-4.81-4.37-10.12-4-20.73-6.88-30.47-11.61-16.48-8-30.25-19.56-40.16-35.26C27.72,69.3,27,68,26,66.27a92.56,92.56,0,0,1,33.85,9c3.6,1.68,7.09,3.6,10.57,5.5,2.47,1.34,5,1.79,6.49-1s.19-4.59-2.41-6.07c-15-8.64-31-14.49-48.46-15.53-3-.18-4.84-1.28-5.51-4.3s-1.51-6-2.55-10c7.28,1,14,1.56,20.62,2.85C50,49,60.54,53.64,70.65,59.36c1.41.8,3.78.62,5.41,0,.78-.28,1.33-2.62,1.11-3.88a5.23,5.23,0,0,0-2.48-3c-13.63-8-28.11-13.6-43.94-15.29-3.58-.38-7.19-.62-10.79-.75-2-.07-3.12-.44-3.46-2.82C16,30.17,14.86,26.76,14,23.12,33.32,22.31,51,27.28,67.66,36.44a30.4,30.4,0,0,0,3.92,2.15c2.16.78,4.36.65,5.46-1.71a4,4,0,0,0-1.65-5.41l-.11-.06C60.6,23,45.12,16.86,28.06,15.54c-5.21-.4-10.45-.41-15.67-.72A4.31,4.31,0,0,1,9.5,13.77C6.31,9.54,3.3,5.16.05.57,1.37.41,2.79.12,4.21.08,37.28-.79,68.48,5.59,96.37,24.33a115.82,115.82,0,0,1,33.17,33.46c.86,1.33,3,2.87,4.25,2.64a6.59,6.59,0,0,0,4-3.61c4.2-9.89,8.83-19.47,16.45-27.27q14.76-15.1,35.14-9.46C198.25,22.56,206,27.16,213,32.6c-4.48,3.25-9.19,6-13.08,9.62-10.27,9.56-14.42,21.69-13.78,35.63.76,16.36-1,32.32-8.79,47.06-9.2,17.44-24.45,27.08-43,32a112.85,112.85,0,0,1-40.7,3.34,10.72,10.72,0,0,0-10.75,5.25c-11.18,17.16-26.87,27.55-47,31.35-6.14,1.16-9.35-1-10.89-7.44,6.34-2.09,12.71-4,18.92-6.34a26.64,26.64,0,0,0,6.54-4.2c1.94-1.49,2.63-3.88.62-5.4-1.31-1-4.33-1.47-5.5-.64-6.28,4.44-13.46,6.12-20.73,7.81-2.39.56-3.42,0-4-2.3a62.23,62.23,0,0,0-2.11-6.07c4.14-1.09,8.2-1.8,12-3.26a113.25,113.25,0,0,0,12.61-6.19c2.58-1.39,3.42-3.75,1.64-6.26s-4-1.9-6.2-.31C32.12,161.17,24.27,162.77,16.38,164.12ZM186.22,28.41c-1.89,2.5-3.58,3.79-3.87,5.35-.39,2.13,1.13,3.73,3.52,3.79s4-1.32,3.75-3.55C189.41,32.42,187.87,31,186.22,28.41Z" transform="translate(-0.05 0)"/>
    <path class="cls-1" d="M266,38.25,221.63,4.68H310.4Z" transform="translate(-0.05 0)"/>
    <path class="cls-1" d="M221.55,63.2l31.37-23.77c12.47,8.68,10.22,12.06,26.49.13L310.66,63.2Z" transform="translate(-0.05 0)"/>
    <path class="cls-1" d="M286.55,33.91,319.46,9V58.72Z" transform="translate(-0.05 0)"/>
    <path class="cls-1" d="M212.62,9l32.93,24.82L212.68,58.78c0-5.33-.12-10.06.12-14.77,0-.79,1.56-1.73,2.59-2.2,2.42-1.12,5.07-1.79,7.42-3,1.3-.7,2.86-2.09,3.07-3.36a5.76,5.76,0,0,0-1.82-4.23c-3.2-3-6.73-5.72-10.06-8.63a3.66,3.66,0,0,1-1.32-2.2C212.55,16.88,212.62,13.41,212.62,9Z" transform="translate(-0.05 0)"/>
  </g>
</svg>
